<svg id="Layer_1" data-name="Layer 1" xmlns="http://www.w3.org/2000/svg" viewBox="0 0 437.8 504"><defs><style>.cls-1{fill:#f44a82;}.cls-2{fill:#e2276a;}.cls-3{fill:#bfe8f7;}.cls-4{fill:#78caef;}.cls-5{fill:#4bc999;}.cls-6{fill:#3aaf80;}</style></defs><path class="cls-1" d="M469.9,132.5v247L256,503,42.1,379.5v-247L256,9Z" transform="translate(-37.1 -4)"/><path class="cls-2" d="M121,394a48.2,48.2,0,0,1-48.1-48.2v-8.1a20.4,20.4,0,0,1,19.2-20.3V147.3A29.4,29.4,0,0,1,121.5,118h269a29.4,29.4,0,0,1,29.4,29.3V317.4a20.4,20.4,0,0,1,19.2,20.3v8.1A48.2,48.2,0,0,1,391,394Z" transform="translate(-37.1 -4)"/><path class="cls-3" d="M418.8,331.4H405.9V147.3A15.3,15.3,0,0,0,390.5,132h-269a15.3,15.3,0,0,0-15.4,15.3V331.4H93.2a6.3,6.3,0,0,0-6.3,6.3v8.1A34.2,34.2,0,0,0,121,380H391a34.2,34.2,0,0,0,34.1-34.2v-8.1a6.3,6.3,0,0,0-6.3-6.3Z" transform="translate(-37.1 -4)"/><path class="cls-4" d="M291.5,331.4v8.8a11.8,11.8,0,0,1-11.8,11.9H232.3a11.8,11.8,0,0,1-11.8-11.9v-8.8Z" transform="translate(-37.1 -4)"/><path class="cls-5" d="M129.1,158.6V308.4H382.9V158.6Z" transform="translate(-37.1 -4)"/><path class="cls-6" d="M362.9,293.4H174.7a5,5,0,0,1-5-5,5.1,5.1,0,0,1,5-5H357.9V178.6c0-6.6,10-6.6,10,0V288.4A5,5,0,0,1,362.9,293.4Zm-208.2,0h-5.6a5,5,0,0,1-5-5,5,5,0,0,1,5-5h5.6a5,5,0,0,1,5,5A5,5,0,0,1,154.7,293.4Z" transform="translate(-37.1 -4)"/><path d="M124.1,158.6V308.4a5,5,0,0,0,5,5H382.9a5,5,0,0,0,5-5V158.6a5,5,0,0,0-5-5H129.1a5,5,0,0,0-5,5Zm10,5H377.9V303.4H134.1Z" transform="translate(-37.1 -4)"/><circle cx="315.6" cy="376" r="5"/><path d="M191.4,232.7l30.3-30.4c4.7-4.7-2.5-11.6-7-7l-33.9,33.8a5.1,5.1,0,0,0,0,7.1l33.9,33.9c4.7,4.7,11.6-2.5,7-7.1Z" transform="translate(-37.1 -4)"/><path d="M297.3,195.3c-4.6-4.6-11.7,2.4-7,7l30.3,30.4L290.3,263c-4.7,4.7,2.3,11.7,7,7.1l33.9-33.9a5,5,0,0,0,0-7.1Z" transform="translate(-37.1 -4)"/><path d="M263.5,198.8l-24.4,67.7c-2.2,6.3,7.2,9.6,9.4,3.4l24.4-67.7c2.2-6.3-7.2-9.7-9.4-3.4Z" transform="translate(-37.1 -4)"/><path d="M474.9,379.7V132.5a5,5,0,0,0-2.5-4.3l-105.6-61c-5.7-3.3-10.7,5.4-5,8.7h0l103.1,59.5V370.8l-35.1-20.2c.4-3.3.3-4,.3-12.9a11.4,11.4,0,0,0-11.3-11.3h-7.9V147.3A20.4,20.4,0,0,0,390.5,127H261V17.7l66.2,38.2c5.6,3.2,10.7-5.4,5-8.7-1.1-.6-73.6-42.6-74.8-43a4.5,4.5,0,0,0-2.8,0c-1.2.4-214,123.4-215,124a5,5,0,0,0-2.5,4.3V379.7a5,5,0,0,0,2.5,4.1l52.8,30.5c5.7,3.3,10.7-5.3,5-8.7L52.1,379.5l32.7-18.9A39.2,39.2,0,0,0,121,385H332.7c6.6,0,6.7-10,0-10H121a29.2,29.2,0,0,1-29.1-29.2v-8.1a1.3,1.3,0,0,1,1.3-1.3H215.5v3.8a16.9,16.9,0,0,0,16.8,16.9h47.4a16.9,16.9,0,0,0,16.8-16.9v-3.8H418.8a1.3,1.3,0,0,1,1.3,1.3v8.1A29.2,29.2,0,0,1,391,375H372.7c-6.6,0-6.6,10,0,10H391a39.2,39.2,0,0,0,36.2-24.4l32.7,18.9L256,497.2,132,425.6c-5.6-3.2-10.8,5.4-5,8.7l126.5,73a5,5,0,0,0,5,0L472.4,383.8a5,5,0,0,0,2.5-4.1Zm-74-232.4V326.4H111.1V147.3A10.4,10.4,0,0,1,121.5,137h269A10.4,10.4,0,0,1,400.9,147.3ZM81.9,337.7c0,8.9-.1,9.6.3,12.9L47.1,370.8V135.4L251,17.7V127H121.5a20.4,20.4,0,0,0-20.4,20.3V326.4H93.2a11.4,11.4,0,0,0-11.3,11.3Zm204.6,2.5a6.9,6.9,0,0,1-6.8,6.9H232.3a6.9,6.9,0,0,1-6.8-6.9v-3.8h61Z" transform="translate(-37.1 -4)"/><path d="M107.9,417.5a5,5,0,0,0,1.8,6.8,5.1,5.1,0,0,0,6.9-1.8,5,5,0,1,0-8.7-5Z" transform="translate(-37.1 -4)"/><path d="M344.5,65.9a5,5,0,0,0,5-8.7,5.3,5.3,0,0,0-6.9,1.8A5.1,5.1,0,0,0,344.5,65.9Z" transform="translate(-37.1 -4)"/></svg>