<?xml version="1.0" encoding="UTF-8"?>
<svg id="a" data-name="Layer 1" xmlns="http://www.w3.org/2000/svg" viewBox="0 0 786.08 160.2">
  <defs>
    <style>
      .b {
        font-size: 39.62px;
      }

      .b, .c {
        font-family: BodoniMT, 'Bodoni MT';
      }

      .b, .c, .d {
        fill: #231f20;
      }

      .e {
        letter-spacing: 0em;
      }

      .c {
        font-size: 67.86px;
      }
    </style>
  </defs>
  <text class="c" transform="translate(224.96 123.59) scale(1.21 1)"><tspan x="0" y="0">Galloping Goose</tspan></text>
  <text class="b" transform="translate(228.82 70.7) scale(1.17 1)"><tspan class="e" x="0" y="0">T</tspan><tspan x="25.98" y="0">he</tspan></text>
  <g>
    <path class="d" d="M192.9,27.5c-11.16-12.31-20.19-19.47-26.2-20.76-1.18-.25-2.25-.28-3.19-.07-9.6,2.13-26.86,18.97-31.54,14.69,0,0-9.9-12.74-33.05-10.86-23.15,1.88-37.4,17.55-37.4,17.55,0,0-1.48,7.52-13.65,18.8-12.17,11.28-6.83,4.7-14.54,19.43s-10.09,12.66,15.73,8.06c25.82-4.61-.59,9.21-.59,9.21,0,0-11.57,.28-16.62,7.8-5.05,7.52,13.06,10.03,13.06,10.03,0,0,27.6,7.16,43.93-5.64,12.69-9.95,9.87-8.08,42.22-4.95s3.48-23.26,25.74-22.63c22.26,.63-9.52-50.69,14.48-36.59,0,0,13.11,10.1,21.73,7.53,0,0,.08-4.51,3.78-3.91,2.77,.45,1.78-5.33,1.78-5.33-2.97-2.19-5.81-12.39-2.86-11.92,7.04,1.11,3.88,6.29,6.7,9.57l2.84,5.96c1.31,.94-.76,6.58,1.91,5.64s3.41-3.6,9.05-1.72,3.71,2.57,6.68,2.66,1.19,1.41,2.97,.47c.57-.3,2.81-1.48,2.97-2.98,.26-2.51-11.33-4.4-12.32-5.17-4.39-3.42-2.82-12.38-5.79-18.33-3.33-6.68-12.17-12.38-18.99-9.24-2.8,1.28-7.78,4.83-12.36,5.04-6.59,.31-12.65-3.1-12.65-3.1"/>
    <path class="d" d="M54.7,113.23s-.62,12.7-4.14,18.76,2.98,2.47,5.88,0c1.77-1.51,8.6,.63,9.4,1.77,2.65,3.77,5.66,2.01,5.88-1.26,.2-3.02,3.71-3.19,5.41-4.02,2.76-1.36,8.41,3.02,7.52,0-.88-2.99-17.34-10.62-17.34-10.62,0,0-7.24,0-5.83-8.07s-11.93-7.85-11.93-7.85c-2.31-1.51,3.14-1.07,5.17,11.29Z"/>
    <path class="d" d="M179.95,116.99c5.94-.52,6.23,.41,6.83-3.13s5.64-5.64,15.43-6.58c6.98-.67,.7-3.91-6.53-3.91s-2.67,1.72-17.21-2.04-28.71-12.98-30.27-17c-1.74-4.48-12.13-.31-5.34,4.07,0,0,27.9,16.92,21.37,20.68-6.53,3.76-.69,14.73,.99,10.03,1.68-4.7,7.02-4.84,8.8-4.31"/>
    <path class="d" d="M33.91,67.81s-9.08,5.29-18.88,10.62c-9.79,5.33-9.18,3.76-13.64,8.77s3.25,6.89,3.25,3.76-8.01,9.19,16.92-8.57"/>
    <path class="d" d="M39.04,55.13s-20.53,5.85-22.08,31.77c-.13,2.11,4.32,2.78,7.07-2.21l2.31-4.54,12.7-25.02Z"/>
    <path class="d" d="M61.53,28.05s-22.4,8.46-22.49,27.09c-.03,6.37,43.07-32.66,22.49-27.09Z"/>
    <path class="d" d="M22.56,85.97s.59-12.55,6.53-15.69c5.94-3.13,10.39-4.96,13.36-5.14s-15.43,9.57-19.89,20.83Z"/>
    <path class="d" d="M45.68,71.63l-5.48,17.04s24.47-11.48,24.19-16.86c-.11-2.1-12.28,1.31-18.71-.18Z"/>
    <path class="d" d="M40.48,85.97s-4.95,.31-9.45,4.39c-4.5,4.07-9.37,8.3-10.26,10.97s5.76,7.52,5.76,7.52c0,0,5.98-8,12.51-8.78,6.53-.78,7.7-1.49,7.7-1.49,0,0,3.83-7.9-6.26-12.6Z"/>
    <path class="d" d="M140.57,22.46s8.95,2.59,18.07-16.3c5.86-12.14,12.71,8.64,18.52,7.98s7.23-1.11,7.23-1.11"/>
    <path class="d" d="M182.97,9.09c-7.91,1.81-10.06-5.18-15.99-8.06-12.79-6.22-25.03,17.86-25.03,17.86,0,0,7,0-1.38,8.62"/>
  </g>
</svg>