<?xml version="1.0" encoding="UTF-8"?>
<svg id="a" data-name="Layer 1" xmlns="http://www.w3.org/2000/svg" viewBox="0 0 273.1 121.01">
  <defs>
    <style>
      .b {
        letter-spacing: 0em;
      }

      .c {
        letter-spacing: 0em;
      }

      .d {
        letter-spacing: 0em;
      }

      .e {
        letter-spacing: -.04em;
      }

      .f {
        letter-spacing: -.01em;
      }

      .g {
        font-size: 95.9px;
      }

      .g, .h, .i {
        fill: #231f20;
      }

      .g, .i {
        font-family: MyriadPro-Regular, 'Myriad Pro';
      }

      .j {
        letter-spacing: 0em;
      }

      .k {
        letter-spacing: 0em;
      }

      .i {
        font-size: 40.98px;
      }
    </style>
  </defs>
  <text class="g" transform="translate(77.12 80.27) scale(1.15 1)"><tspan class="e" x="0" y="0">T</tspan><tspan class="k" x="43.35" y="0">r</tspan><tspan x="73.74" y="0">ee</tspan></text>
  <text class="i" transform="translate(97.23 110.77) scale(.78 1)"><tspan class="j" x="0" y="0">P</tspan><tspan x="21.6" y="0">ho</tspan><tspan class="c" x="66.83" y="0">t</tspan><tspan x="80.15" y="0">o</tspan><tspan class="b" x="102.65" y="0">g</tspan><tspan class="d" x="125.31" y="0">r</tspan><tspan x="138.5" y="0">ap</tspan><tspan class="f" x="181.57" y="0">h</tspan><tspan x="203.78" y="0">y</tspan></text>
  <g>
    <path class="h" d="M41.65,77.76v-9.06c-1.07-1.91-1.83-4.01-2.2-6.25-.1,0-.2,0-.3,0-.21,0-.43-.01-.64-.02-.42,1.64-1.06,3.19-1.86,4.64v24.8l-14.88-14.88c-.72,.08-1.45,.14-2.19,.14-.18,0-.35-.02-.52-.03l17.6,17.6v22.62c0,1.38,1.12,2.5,2.5,2.5s2.5-1.12,2.5-2.5v-36.74l5.58-5.58c-.54-.4-1.06-.82-1.56-1.27l-4.03,4.03Z"/>
    <path class="h" d="M64.65,40.51c.19-1.25,.29-2.54,.29-3.84,0-14.24-11.54-25.78-25.78-25.78S13.37,22.43,13.37,36.67c0,.77,.04,1.53,.11,2.28C5.65,41.52,0,48.87,0,57.55c0,10.64,8.49,19.27,19.05,19.55l-10.3-10.3c-.39-.39-.39-1.02,0-1.41h0c.39-.39,1.02-.39,1.41,0l11.6,11.6c6.41-.72,11.88-4.53,14.88-9.92v-24.98c0-1.38,1.12-2.5,2.5-2.5s2.5,1.12,2.5,2.5v26.6c1.06,1.9,2.42,3.59,4.03,5.04l22.46-22.46c.39-.39,1.02-.39,1.41,0s.39,1.02,0,1.41l-22.32,22.32c3.23,2.35,7.19,3.75,11.49,3.75,10.81,0,19.58-8.76,19.58-19.58,0-8.75-5.74-16.15-13.66-18.66Z"/>
  </g>
</svg>